# xmcd
#
# Track frame offsets: 
#        150
#        12880
#        34197
#        67087
#        93450
#        131007
#        153275
#        178122
#        235570
#        255077
#
# Disc length: 3718 seconds
#
# Revision: 0
# Processed by: cddbd v1.4PL0 Copyright (c) Steve Scherf et al.
# Submitted via: ExactAudioCopy v0.90b4
#
DISCID=760e840a
DTITLE=Martyn Brabbins - Korngold: Die Kathrin [CD2)
DYEAR=1997
DGENRE=Opera
TTITLE0=2. Akt, 1. Bild 'Na, was soll denn das kosten'
TTITLE1=Zu ihm! Ich will zu ihm!
TTITLE2=Was gibt's denn da
TTITLE3=2. Bild 'Monsieur Francois'
TTITLE4=Verdienst eigentlich gar nicht, daﬂ ich so nett bin
TTITLE5=3. Bild 'In einer Viertelstund'
TTITLE6=Es tut mir leid
TTITLE7=Madame, c'est servi
TTITLE8=4. Bild 'Ich muﬂ ihn retten!'
TTITLE9=Was ist geschehn
EXTD=Erich Wolfgang Korngold:\nDie Kathrin\nOper in drei Akten op. 28\n
EXTD=Kathrin..........Melanie Diener            Francois..............
EXTD=David Rendall\nMalignac.....Robert Hayward         Chou-Chou...
EXTD=Lilian Watson\nMonique......Della Jones\n\nBBC Singers  
EXTD=BBC Concert Orchestra\nMartyn Brabbins\n\nLive Recording: Novembe
EXTD=r 23, 1997, Studio 1, Maida Vale, London\nreleased as cpo 999 602
EXTD=2 (DDD) [CD2 of 3]\n
EXTT0=
EXTT1=
EXTT2=
EXTT3=
EXTT4=
EXTT5=
EXTT6=
EXTT7=
EXTT8=
EXTT9=
PLAYORDER=
